<svg width="381" height="377" viewBox="0 0 381 377" fill="none" xmlns="http://www.w3.org/2000/svg">
<path d="M7.18991 376.128H2V328.389H20.8134C22.3704 328.389 23.8846 328.571 25.3546 328.934C26.8247 329.306 28.1572 329.989 29.3509 330.984C30.5354 331.979 31.4748 333.393 32.1664 335.226C32.8579 337.068 33.2044 339.481 33.2044 342.464C33.2044 345.059 32.9228 347.186 32.361 348.847C31.7992 350.516 31.0635 351.834 30.1553 352.803C29.247 353.78 28.2648 354.499 27.21 354.957C26.1461 355.407 25.1172 355.718 24.122 355.891L33.918 376.128H28.6632L19.3862 356.604C18.6946 356.604 17.8292 356.582 16.7912 356.539C15.7533 356.497 14.6504 356.475 13.4827 356.475C12.315 356.475 11.1823 356.453 10.0833 356.41C8.97654 356.367 8.01122 356.345 7.18991 356.345V376.128ZM7.18991 333.059V352.388H20.0349C21.1599 352.388 22.1979 352.259 23.1489 351.999C24.1 351.74 24.9433 351.251 25.679 350.533C26.4147 349.824 26.9985 348.821 27.4306 347.524C27.8626 346.226 28.0793 344.54 28.0793 342.464C28.0793 340.476 27.8626 338.862 27.4306 337.626C26.9985 336.397 26.4056 335.446 25.653 334.772C24.8914 334.106 24.0351 333.652 23.084 333.41C22.133 333.176 21.1157 333.059 20.0349 333.059H7.18991ZM51.5637 376.387C50.5257 376.387 49.4228 376.287 48.2551 376.089C47.0874 375.898 45.9845 375.501 44.9465 374.896C43.9086 374.29 43.0652 373.369 42.4164 372.132C41.7677 370.904 41.4433 369.23 41.4433 367.112V337.989C41.4433 336.13 41.7158 334.581 42.2608 333.345C42.7966 332.116 43.5193 331.143 44.4275 330.426C45.3358 329.716 46.3517 329.197 47.4766 328.869C48.6015 328.549 49.7251 328.389 50.8501 328.389C53.5319 328.432 56.0179 328.484 58.3106 328.545C60.6032 328.614 62.7778 328.684 64.8369 328.752C66.8869 328.813 68.885 328.886 70.8312 328.973V333.124H52.1475C50.4608 333.124 49.1205 333.578 48.1254 334.486C47.1302 335.394 46.6333 336.843 46.6333 338.832V350.118L67.9768 350.442V354.399L46.6333 354.723V365.945C46.6333 367.544 46.9057 368.756 47.4507 369.577C47.9865 370.398 48.7092 370.939 49.6175 371.198C50.5257 371.458 51.456 371.588 52.407 371.588H70.8312V375.739C68.8422 375.868 66.7571 375.976 64.5774 376.063C62.3885 376.15 60.2049 376.215 58.0251 376.258C55.8363 376.3 53.6825 376.345 51.5637 376.387ZM93.6669 376.452C90.6398 376.495 88.1305 376.028 86.1415 375.051C84.1525 374.082 82.5955 372.603 81.4706 370.615C80.3456 368.626 79.5464 366.096 79.0702 363.026C78.594 359.955 78.3566 356.323 78.3566 352.129C78.3566 348.107 78.6031 344.583 79.0962 341.556C79.5983 338.53 80.4546 336.008 81.6652 333.993C82.8757 331.986 84.5326 330.487 86.6345 329.492C88.7274 328.497 91.3535 328 94.5102 328C96.1969 328 97.9485 328.065 99.765 328.195C101.581 328.324 103.355 328.519 105.085 328.778C106.814 329.038 108.415 329.34 109.885 329.686V333.578C109.02 333.448 107.809 333.306 106.252 333.15C104.695 333.003 102.953 332.887 101.024 332.8C99.1033 332.713 97.1921 332.67 95.2887 332.67C92.1748 332.67 89.7615 333.31 88.0488 334.59C86.3452 335.861 85.1554 337.933 84.4807 340.804C83.8151 343.684 83.4817 347.481 83.4817 352.194C83.4817 355.999 83.6672 359.156 84.0396 361.664C84.4029 364.171 85.0166 366.161 85.882 367.631C86.7474 369.101 87.9229 370.148 89.4111 370.77C90.9071 371.402 92.8014 371.717 95.0941 371.717C97.1272 371.717 99.224 371.458 101.387 370.939C103.55 370.42 105.387 369.858 106.901 369.253V355.177H95.3536V351.35C96.1749 351.221 97.1701 351.113 98.3378 351.026C99.5055 350.939 100.747 350.861 102.062 350.793C103.385 350.732 104.717 350.702 106.058 350.702C107.183 350.702 108.241 350.711 109.237 350.728C110.232 350.754 111.096 350.832 111.832 350.961V376.128H108.069L107.29 372.755C105.733 373.533 103.752 374.334 101.348 375.155C98.9515 375.976 96.3916 376.409 93.6669 376.452ZM127.077 376.128H121.887V328.389H127.077V376.128ZM150.626 376.517C149.675 376.517 148.541 376.487 147.227 376.426C145.903 376.358 144.55 376.271 143.166 376.167C141.781 376.054 140.476 375.933 139.247 375.804C138.011 375.674 136.981 375.522 136.159 375.35V371.393C137.24 371.48 138.56 371.566 140.117 371.652C141.674 371.739 143.351 371.804 145.151 371.847C146.941 371.89 148.702 371.912 150.432 371.912C152.378 371.912 154.129 371.717 155.686 371.328C157.243 370.939 158.489 370.225 159.423 369.188C160.348 368.15 160.811 366.658 160.811 364.712V361.469C160.811 359.264 160.25 357.586 159.125 356.436C158 355.294 156.183 354.723 153.675 354.723H148.55C144.615 354.723 141.535 353.858 139.312 352.129C137.08 350.4 135.965 347.416 135.965 343.178V340.454C135.965 335.956 137.175 332.757 139.598 330.854C142.02 328.951 145.436 328 149.848 328C151.232 328 152.789 328.074 154.519 328.221C156.248 328.376 157.927 328.554 159.553 328.752C161.171 328.943 162.52 329.145 163.601 329.362V333.319C161.698 333.146 159.549 332.994 157.152 332.865C154.748 332.735 152.485 332.67 150.367 332.67C148.42 332.67 146.734 332.895 145.307 333.345C143.879 333.803 142.789 334.603 142.037 335.745C141.275 336.895 140.895 338.53 140.895 340.648V342.853C140.895 345.491 141.587 347.307 142.971 348.302C144.355 349.297 146.28 349.794 148.745 349.794H154.259C156.897 349.794 159.06 350.27 160.747 351.221C162.433 352.172 163.688 353.478 164.509 355.138C165.33 356.808 165.742 358.723 165.742 360.885V364.582C165.742 367.783 165.063 370.248 163.705 371.977C162.339 373.706 160.522 374.896 158.255 375.544C155.981 376.193 153.438 376.517 150.626 376.517ZM190.524 376.128H185.334V333.059H170.607V328.389H205.25V333.059H190.524V376.128ZM220.755 376.387C219.717 376.387 218.614 376.287 217.446 376.089C216.279 375.898 215.176 375.501 214.138 374.896C213.1 374.29 212.256 373.369 211.608 372.132C210.959 370.904 210.635 369.23 210.635 367.112V337.989C210.635 336.13 210.907 334.581 211.452 333.345C211.988 332.116 212.711 331.143 213.619 330.426C214.527 329.716 215.543 329.197 216.668 328.869C217.793 328.549 218.916 328.389 220.041 328.389C222.723 328.432 225.209 328.484 227.502 328.545C229.794 328.614 231.969 328.684 234.028 328.752C236.078 328.813 238.076 328.886 240.022 328.973V333.124H221.339C219.652 333.124 218.312 333.578 217.317 334.486C216.321 335.394 215.824 336.843 215.824 338.832V350.118L237.168 350.442V354.399L215.824 354.723V365.945C215.824 367.544 216.097 368.756 216.642 369.577C217.178 370.398 217.9 370.939 218.809 371.198C219.717 371.458 220.647 371.588 221.598 371.588H240.022V375.739C238.033 375.868 235.948 375.976 233.769 376.063C231.58 376.15 229.396 376.215 227.216 376.258C225.027 376.3 222.874 376.345 220.755 376.387ZM253.905 376.128H248.716V328.389H267.529C269.086 328.389 270.6 328.571 272.07 328.934C273.54 329.306 274.873 329.989 276.066 330.984C277.251 331.979 278.19 333.393 278.882 335.226C279.573 337.068 279.92 339.481 279.92 342.464C279.92 345.059 279.638 347.186 279.077 348.847C278.515 350.516 277.779 351.834 276.871 352.803C275.963 353.78 274.98 354.499 273.926 354.957C272.862 355.407 271.833 355.718 270.838 355.891L280.634 376.128H275.379L266.102 356.604C265.41 356.604 264.545 356.582 263.507 356.539C262.469 356.497 261.366 356.475 260.198 356.475C259.031 356.475 257.893 356.453 256.786 356.41C255.687 356.367 254.727 356.345 253.905 356.345V376.128ZM253.905 333.059V352.388H266.75C267.875 352.388 268.913 352.259 269.864 351.999C270.816 351.74 271.659 351.251 272.395 350.533C273.13 349.824 273.714 348.821 274.146 347.524C274.578 346.226 274.795 344.54 274.795 342.464C274.795 340.476 274.578 338.862 274.146 337.626C273.714 336.397 273.121 335.446 272.369 334.772C271.607 334.106 270.751 333.652 269.8 333.41C268.849 333.176 267.831 333.059 266.75 333.059H253.905ZM293.349 376.128H288.159V328.389H293.349V376.128ZM309.373 376.128H304.248V328.389H308.464L333.376 367.242V328.389H338.501V376.128H334.284L309.373 337.275V376.128ZM361.791 376.452C358.764 376.495 356.254 376.028 354.265 375.051C352.276 374.082 350.719 372.603 349.594 370.615C348.47 368.626 347.67 366.096 347.194 363.026C346.718 359.955 346.481 356.323 346.481 352.129C346.481 348.107 346.727 344.583 347.22 341.556C347.722 338.53 348.579 336.008 349.789 333.993C351 331.986 352.653 330.487 354.745 329.492C356.847 328.497 359.477 328 362.634 328C364.321 328 366.072 328.065 367.889 328.195C369.705 328.324 371.479 328.519 373.209 328.778C374.938 329.038 376.539 329.34 378.009 329.686V333.578C377.144 333.448 375.933 333.306 374.376 333.15C372.819 333.003 371.077 332.887 369.148 332.8C367.227 332.713 365.316 332.67 363.413 332.67C360.299 332.67 357.885 333.31 356.173 334.59C354.469 335.861 353.279 337.933 352.605 340.804C351.939 343.684 351.606 347.481 351.606 352.194C351.606 355.999 351.787 359.156 352.151 361.664C352.523 364.171 353.14 366.161 354.006 367.631C354.871 369.101 356.052 370.148 357.548 370.77C359.036 371.402 360.925 371.717 363.218 371.717C365.251 371.717 367.348 371.458 369.511 370.939C371.674 370.42 373.511 369.858 375.025 369.253V355.177H363.478V351.35C364.299 351.221 365.294 351.113 366.462 351.026C367.629 350.939 368.875 350.861 370.198 350.793C371.513 350.732 372.841 350.702 374.182 350.702C375.307 350.702 376.365 350.711 377.361 350.728C378.356 350.754 379.22 350.832 379.955 350.961V376.128H376.193L375.414 372.755C373.857 373.533 371.876 374.334 369.472 375.155C367.075 375.976 364.515 376.409 361.791 376.452Z" fill="#DB8276"/>
<path d="M19.9163 306.128H14.7264V263.059H0V258.389H34.6427V263.059H19.9163V306.128ZM45.8659 306.128H40.676V258.389H45.8659V280.507H69.7395V258.389H74.8645V306.128H69.7395V285.177H45.8659V306.128ZM87.45 306.128H82.1304L98.4786 258.389H105.096L121.444 306.128H116.124L111.324 292.507H92.121L87.45 306.128ZM101.787 262.93L93.4185 287.837H110.026L101.787 262.93ZM134.678 306.128H129.553V258.389H133.77L158.682 297.242V258.389H163.807V306.128H159.59L134.678 267.275V306.128ZM178.144 306.128H172.954V258.389H178.144V279.988H186.513L199.617 258.389H205.066L190.6 282.259L205.261 306.128H199.747L186.513 284.658H178.144V306.128ZM225.761 306.517C224.81 306.517 223.676 306.487 222.362 306.426C221.038 306.358 219.685 306.271 218.301 306.167C216.916 306.054 215.611 305.933 214.382 305.804C213.146 305.674 212.116 305.522 211.294 305.35V301.393C212.375 301.48 213.695 301.566 215.252 301.652C216.809 301.739 218.482 301.804 220.273 301.847C222.073 301.89 223.837 301.912 225.567 301.912C227.513 301.912 229.264 301.717 230.821 301.328C232.378 300.939 233.62 300.225 234.545 299.188C235.479 298.15 235.946 296.658 235.946 294.712V291.469C235.946 289.264 235.385 287.586 234.26 286.436C233.135 285.294 231.318 284.723 228.81 284.723H223.685C219.75 284.723 216.666 283.858 214.434 282.129C212.212 280.4 211.1 277.416 211.1 273.178V270.454C211.1 265.956 212.31 262.757 214.733 260.854C217.155 258.951 220.571 258 224.983 258C226.367 258 227.924 258.074 229.654 258.221C231.383 258.376 233.062 258.554 234.688 258.752C236.306 258.943 237.655 259.145 238.736 259.362V263.319C236.833 263.146 234.679 262.994 232.275 262.865C229.878 262.735 227.621 262.67 225.502 262.67C223.556 262.67 221.869 262.895 220.442 263.345C219.014 263.803 217.925 264.603 217.172 265.745C216.41 266.895 216.03 268.53 216.03 270.648V272.853C216.03 275.491 216.722 277.307 218.106 278.302C219.491 279.297 221.415 279.794 223.88 279.794H229.394C232.032 279.794 234.195 280.27 235.882 281.221C237.568 282.172 238.823 283.478 239.644 285.138C240.466 286.808 240.877 288.723 240.877 290.885V294.582C240.877 297.783 240.198 300.247 238.84 301.977C237.474 303.706 235.657 304.896 233.39 305.544C231.116 306.193 228.573 306.517 225.761 306.517ZM272.406 306.128H267.216V267.989C267.216 266.13 267.488 264.581 268.033 263.345C268.569 262.116 269.292 261.143 270.2 260.426C271.108 259.716 272.124 259.197 273.249 258.869C274.374 258.549 275.498 258.389 276.622 258.389C278.526 258.432 280.593 258.476 282.824 258.519C285.047 258.562 287.34 258.614 289.701 258.675C292.053 258.743 294.355 258.865 296.604 259.038V263.124H277.855C276.125 263.124 274.784 263.6 273.833 264.551C272.882 265.502 272.406 266.908 272.406 268.767V281.156L293.749 281.48V285.437L272.406 285.761V306.128ZM321.256 306.517C318.185 306.517 315.495 306.223 313.185 305.635C310.867 305.055 308.939 303.945 307.399 302.301C305.868 300.657 304.722 298.237 303.96 295.036C303.208 291.836 302.831 287.642 302.831 282.453C302.831 277.264 303.221 273.057 303.999 269.831C304.778 266.614 305.945 264.149 307.502 262.437C309.059 260.733 310.984 259.566 313.276 258.934C315.569 258.311 318.229 258 321.256 258C324.37 258 327.085 258.311 329.404 258.934C331.713 259.566 333.638 260.733 335.178 262.437C336.709 264.149 337.841 266.614 338.577 269.831C339.313 273.057 339.68 277.264 339.68 282.453C339.68 287.642 339.304 291.836 338.551 295.036C337.789 298.237 336.64 300.657 335.1 302.301C333.569 303.945 331.658 305.055 329.365 305.635C327.072 306.223 324.37 306.517 321.256 306.517ZM321.256 301.912C323.678 301.912 325.732 301.674 327.419 301.198C329.105 300.722 330.477 299.801 331.532 298.435C332.596 297.077 333.365 295.123 333.841 292.572C334.317 290.02 334.555 286.647 334.555 282.453C334.555 278.085 334.304 274.583 333.802 271.945C333.309 269.308 332.531 267.318 331.467 265.978C330.412 264.638 329.054 263.751 327.393 263.319C325.723 262.887 323.678 262.67 321.256 262.67C319.007 262.67 317.052 262.887 315.391 263.319C313.721 263.751 312.338 264.638 311.239 265.978C310.132 267.318 309.31 269.308 308.774 271.945C308.229 274.583 307.957 278.085 307.957 282.453C307.957 286.647 308.186 290.02 308.644 292.572C309.094 295.123 309.838 297.077 310.876 298.435C311.914 299.801 313.285 300.722 314.989 301.198C316.702 301.674 318.79 301.912 321.256 301.912ZM353.693 306.128H348.503V258.389H367.316C368.873 258.389 370.387 258.571 371.857 258.934C373.327 259.306 374.66 259.989 375.854 260.984C377.038 261.979 377.978 263.393 378.669 265.226C379.361 267.068 379.707 269.481 379.707 272.464C379.707 275.059 379.426 277.186 378.864 278.847C378.302 280.516 377.566 281.834 376.658 282.803C375.75 283.78 374.764 284.499 373.7 284.957C372.645 285.407 371.62 285.718 370.625 285.891L380.421 306.128H375.166L365.889 286.604C365.197 286.604 364.332 286.582 363.294 286.539C362.256 286.497 361.153 286.475 359.985 286.475C358.818 286.475 357.685 286.453 356.586 286.41C355.479 286.367 354.514 286.345 353.693 286.345V306.128ZM353.693 263.059V282.388H366.538C367.663 282.388 368.701 282.259 369.652 281.999C370.603 281.74 371.446 281.251 372.182 280.533C372.917 279.824 373.501 278.821 373.933 277.524C374.365 276.226 374.582 274.54 374.582 272.464C374.582 270.476 374.365 268.862 373.933 267.626C373.501 266.397 372.908 265.446 372.156 264.772C371.394 264.106 370.538 263.652 369.587 263.41C368.636 263.176 367.618 263.059 366.538 263.059H353.693Z" fill="#DB8276"/>
<g clip-path="url(#clip0_134_5)">
<g clip-path="url(#clip1_134_5)">
<path d="M80 110.822C80 49.6165 129.625 0 190.841 0C252.057 0 301.682 49.6165 301.682 110.822C301.682 172.027 252.057 221.643 190.841 221.643C129.625 221.643 80 172.027 80 110.822ZM190.841 217.237C249.623 217.237 297.275 169.594 297.276 110.822C297.276 52.0504 249.624 4.40687 190.841 4.40687C132.06 4.40687 84.4076 52.0504 84.4076 110.822C84.4076 169.593 132.06 217.236 190.841 217.237Z" fill="#DB8276"/>
<path d="M190.841 220.535C251.445 220.535 300.574 171.415 300.574 110.822C300.574 50.2286 251.445 1.10822 190.841 1.10822C130.238 1.10822 81.1084 50.2286 81.1084 110.822C81.1084 171.415 130.238 220.535 190.841 220.535Z" fill="#DB8276"/>
<g clip-path="url(#clip2_134_5)">
<g clip-path="url(#clip3_134_5)">
<path d="M171.802 115.681C174.985 115.681 177.565 113.101 177.565 109.919C177.565 106.737 174.985 104.157 171.802 104.157C168.619 104.157 166.039 106.737 166.039 109.919C166.039 113.101 168.619 115.681 171.802 115.681Z" fill="white"/>
<path d="M212.225 115.681C215.408 115.681 217.988 113.101 217.988 109.919C217.988 106.737 215.408 104.157 212.225 104.157C209.042 104.157 206.462 106.737 206.462 109.919C206.462 113.101 209.042 115.681 212.225 115.681Z" fill="white"/>
<path d="M181.457 124.371C181.457 129.829 191.34 134.257 191.34 134.257C191.34 134.257 201.229 129.829 201.229 124.371C201.229 118.913 181.457 118.913 181.457 124.371Z" fill="white"/>
<path d="M253.661 135.351L241.529 133.413C242.259 131.889 242.881 130.305 243.413 128.679L252.662 130.16C252.832 130.188 253 130.197 253.167 130.197C254.696 130.197 256.04 129.09 256.287 127.533C256.565 125.809 255.389 124.184 253.664 123.907L244.921 122.51C245.288 120.25 245.481 117.916 245.481 115.513C245.481 106.55 239.507 86.6691 237.066 80.5171C235.191 75.8003 233.309 72.7256 231.131 69.1638C230.118 67.5086 229.03 65.7316 227.839 63.605C227.311 62.6647 226.343 62.0584 225.266 61.9943C224.154 61.9131 223.156 62.4186 222.52 63.2868C218.563 68.7068 212.424 74.7448 209.94 74.7448C208.925 74.7448 207.056 74.5144 204.891 74.2472C201.064 73.7758 196.296 73.1865 191.351 73.1865C187.276 73.1865 183.335 73.7025 179.857 74.1569C177.443 74.4725 175.359 74.7448 173.92 74.7448C168.702 74.7448 162.731 66.7386 161.049 63.9336C160.481 62.9869 159.46 62.4015 158.354 62.395C157.2 62.3897 156.221 62.9541 155.64 63.8944C151.912 69.9207 149.451 73.9015 146.774 80.8667C144.316 87.2623 138.555 106.765 138.555 115.512C138.555 117.784 138.733 119.993 139.06 122.141L128.026 123.906C126.301 124.18 125.125 125.806 125.401 127.532C125.648 129.088 126.995 130.195 128.522 130.195C128.687 130.195 128.856 130.185 129.026 130.159L140.506 128.323C141.022 129.952 141.631 131.535 142.344 133.063L128.02 135.351C126.295 135.627 125.119 137.251 125.394 138.98C125.643 140.534 126.988 141.643 128.515 141.643C128.682 141.643 128.851 141.63 129.021 141.606L145.715 138.936C154.634 151.763 171.256 159.658 192.012 159.658C212.586 159.658 229.1 151.898 238.078 139.272L252.663 141.604C252.833 141.631 253.001 141.642 253.169 141.642C254.697 141.642 256.041 140.533 256.289 138.978C256.564 137.251 255.386 135.627 253.661 135.351ZM192.011 153.325C176.801 153.325 161.509 148.403 152.63 137.826L155.409 137.383C157.136 137.107 158.31 135.484 158.034 133.756C157.758 132.031 156.132 130.855 154.41 131.132L148.743 132.039C147.964 130.549 147.294 128.978 146.738 127.324L155.409 125.94C157.136 125.662 158.31 124.039 158.034 122.312C157.758 120.589 156.132 119.412 154.41 119.687L145.285 121.147C145.03 119.345 144.879 117.474 144.879 115.513C144.879 108.412 149.939 90.265 152.679 83.1361C154.523 78.3368 156.224 75.1259 158.5 71.331C161.748 75.4572 167.374 81.0736 173.912 81.0736C175.764 81.0736 178.036 80.7764 180.67 80.4333C183.955 80.0038 187.68 79.5166 191.344 79.5166C195.901 79.5166 200.451 80.0771 204.109 80.5276C206.579 80.8314 208.529 81.0736 209.932 81.0736C215.052 81.0736 220.981 75.1665 224.689 70.764C225.044 71.3506 225.388 71.9163 225.727 72.4676C227.835 75.9181 229.503 78.6419 231.176 82.8519C233.901 89.7228 239.143 108.239 239.143 115.512C239.143 117.607 238.974 119.598 238.682 121.51L227.268 119.684C225.526 119.403 223.917 120.584 223.641 122.31C223.365 124.034 224.542 125.658 226.266 125.936L237.157 127.676C236.584 129.323 235.903 130.897 235.105 132.38L227.268 131.126C225.523 130.849 223.916 132.026 223.64 133.751C223.363 135.475 224.541 137.1 226.263 137.377L231.101 138.152C222.19 148.502 207.061 153.325 192.011 153.325Z" fill="white"/>
</g>
</g>
</g>
</g>
<defs>
<clipPath id="clip0_134_5">
<rect width="221.683" height="221.643" fill="white" transform="translate(80)"/>
</clipPath>
<clipPath id="clip1_134_5">
<rect width="221.683" height="221.643" fill="white" transform="translate(80)"/>
</clipPath>
<clipPath id="clip2_134_5">
<rect width="130.974" height="97.672" fill="white" transform="translate(125.354 61.9857)"/>
</clipPath>
<clipPath id="clip3_134_5">
<rect width="130.974" height="97.672" fill="white" transform="translate(125.354 61.9857)"/>
</clipPath>
</defs>
</svg>
