<svg xmlns="http://www.w3.org/2000/svg" version="1.1" xmlns:xlink="http://www.w3.org/1999/xlink" xmlns:svgjs="http://svgjs.dev/svgjs" width="1000" height="154" viewBox="0 0 1000 154"><g transform="matrix(1,0,0,1,-0.6060606060606233,-0.20443619101781962)"><svg viewBox="0 0 396 61" data-background-color="#ffffff" preserveAspectRatio="xMidYMid meet" height="154" width="1000" xmlns="http://www.w3.org/2000/svg" xmlns:xlink="http://www.w3.org/1999/xlink"><g id="tight-bounds" transform="matrix(1,0,0,1,0.2400000000000091,0.08097797176679933)"><svg viewBox="0 0 395.52 60.83804405646638" height="60.83804405646638" width="395.52"><g><svg viewBox="0 0 540.9299822416586 83.2046978435518" height="60.83804405646638" width="395.52"><g><rect width="5.429439593907146" height="72.24720507399577" x="409.7331926542072" y="5.478746384778013" fill="#db8276" opacity="1" stroke-width="0" stroke="transparent" fill-opacity="1" class="rect-i$-0" data-fill-palette-color="primary" rx="1%" id="i$-0" data-palette-color="#db8276"></rect></g><g transform="matrix(1,0,0,1,0,11.499346807610994)"><svg viewBox="0 0 395.52 60.20600422832981" height="60.20600422832981" width="395.52"><g id="textblocktransform"><svg viewBox="0 0 395.52 60.20600422832981" height="60.20600422832981" width="395.52" id="textblock"><g><svg viewBox="0 0 395.52 60.20600422832981" height="60.20600422832981" width="395.52"><g transform="matrix(1,0,0,1,0,0)"><svg width="395.52" viewBox="1.35 -35.5 236.47 36" height="60.20600422832981" data-palette-color="#db8276"><path d="M9.65 0.5L9.65 0.5Q8.15 0.5 6.85 0.13 5.55-0.25 4.53-1.23 3.5-2.2 2.8-4.05 2.1-5.9 1.73-8.88 1.35-11.85 1.35-16.15L1.35-16.15Q1.35-21.2 1.93-24.65 2.5-28.1 3.53-30.25 4.55-32.4 5.83-33.55 7.1-34.7 8.5-35.1 9.9-35.5 11.2-35.5L11.2-35.5Q13.2-35.5 14.2-35.08 15.2-34.65 15.58-34 15.95-33.35 15.95-32.7L15.95-32.7Q15.95-31.9 15.73-31.15 15.5-30.4 15.25-29.9L15.25-29.9Q15-30.15 14.55-30.38 14.1-30.6 13.5-30.8 12.9-31 12.2-31L12.2-31Q11.3-31 10.43-30.68 9.55-30.35 8.75-29.45 7.95-28.55 7.38-26.93 6.8-25.3 6.48-22.73 6.15-20.15 6.15-16.45L6.15-16.45Q6.15-12.8 6.48-10.48 6.8-8.15 7.38-6.88 7.95-5.6 8.83-5.1 9.7-4.6 10.8-4.6L10.8-4.6Q12.15-4.6 13.3-4.98 14.45-5.35 15.15-5.85L15.15-5.85Q15.4-5.3 15.6-4.6 15.8-3.9 15.8-3.15L15.8-3.15Q15.8-2.1 15.05-1.28 14.3-0.45 12.9 0.03 11.5 0.5 9.65 0.5ZM26.65 0.5L26.65 0.5Q24.2 0.5 22.5-0.3 20.8-1.1 19.72-3.15 18.65-5.2 18.15-8.72 17.65-12.25 17.65-17.7L17.65-17.7Q17.65-24.4 18.7-28.28 19.75-32.15 21.87-33.83 24-35.5 27.2-35.5L27.2-35.5Q29.65-35.5 31.35-34.65 33.05-33.8 34.1-31.8 35.15-29.8 35.62-26.4 36.1-23 36.1-17.85L36.1-17.85Q36.1-10.9 35.1-6.9 34.1-2.9 32.02-1.2 29.95 0.5 26.65 0.5ZM26.85-4.2L26.85-4.2Q28.5-4.2 29.4-5.55 30.3-6.9 30.7-9.9 31.1-12.9 31.1-17.75L31.1-17.75Q31.1-22.55 30.77-25.4 30.45-28.25 29.6-29.53 28.75-30.8 27.1-30.8L27.1-30.8Q25.55-30.8 24.6-29.43 23.65-28.05 23.22-24.95 22.8-21.85 22.8-16.6L22.8-16.6Q22.8-12.2 23.15-9.47 23.5-6.75 24.4-5.48 25.3-4.2 26.85-4.2ZM56.55 0L53.05 0 47.5-13.65Q47.15-14.55 46.65-16.05 46.15-17.55 45.57-19.35 45-21.15 44.5-22.95 44-24.75 43.55-26.25 43.1-27.75 42.85-28.65 42.6-29.55 42.6-29.55L42.6-29.55 39.95-32.3 40.25-35 43.75-35 49.25-21.6Q49.65-20.6 50.17-19.05 50.7-17.5 51.25-15.73 51.8-13.95 52.3-12.23 52.8-10.5 53.22-9.05 53.65-7.6 53.9-6.73 54.15-5.85 54.15-5.85L54.15-5.85 56.95-2.7 56.55 0ZM39.35 0L39.35 0 39.35-34.1Q39.35-35 40.25-35L40.25-35 43.9-34.1 43.25-27.4Q43.4-26.6 43.47-25.4 43.55-24.2 43.62-22.8 43.7-21.4 43.75-19.95 43.8-18.5 43.82-17.15 43.85-15.8 43.87-14.7 43.9-13.6 43.9-12.95L43.9-12.95 43.9-0.9Q43.9-0.45 43.7-0.28 43.5-0.1 42.57-0.05 41.65 0 39.35 0ZM56.55 0L56.55 0 52.85-0.9 53.45-8.55Q53.3-9.4 53.22-10.58 53.15-11.75 53.1-13.08 53.05-14.4 53-15.75 52.95-17.1 52.92-18.35 52.9-19.6 52.87-20.65 52.85-21.7 52.85-22.4L52.85-22.4 52.85-34.1Q52.85-34.55 53.05-34.73 53.25-34.9 54.22-34.95 55.2-35 57.4-35L57.4-35 57.4-0.9Q57.4 0 56.55 0ZM71.54-7.9L69.64-7.9 67.09-15.6Q66.94-16.05 66.62-17.25 66.29-18.45 65.87-20.05 65.44-21.65 64.97-23.33 64.49-25 64.12-26.45 63.74-27.9 63.52-28.78 63.29-29.65 63.29-29.65L63.29-29.65 65.04-35 69.54-20.8Q69.84-19.95 70.12-18.98 70.39-18 70.59-17.2 70.79-16.4 70.92-15.9 71.04-15.4 71.04-15.4L71.04-15.4Q71.04-15.4 71.14-15.9 71.24-16.4 71.47-17.2 71.69-18 71.92-18.93 72.14-19.85 72.44-20.7L72.44-20.7 76.49-34.1 78.54-29.5Q78.54-29.5 78.32-28.63 78.09-27.75 77.72-26.35 77.34-24.95 76.89-23.28 76.44-21.6 75.99-20.05 75.54-18.5 75.22-17.3 74.89-16.1 74.69-15.6L74.69-15.6 72.09-8.3Q71.99-7.9 71.54-7.9L71.54-7.9ZM60.79 0L60.79 0 60.79-34.1Q60.79-34.75 61.07-34.88 61.34-35 61.69-35L61.69-35 65.04-35 65.29-27.55 64.09-26.1Q64.09-26.1 64.17-25.48 64.24-24.85 64.37-23.73 64.49-22.6 64.62-21.13 64.74-19.65 64.87-18.03 64.99-16.4 65.09-14.7 65.19-13 65.19-11.45L65.19-11.45 65.29-0.9Q65.29-0.45 65.07-0.28 64.84-0.1 63.89-0.05 62.94 0 60.79 0ZM76.44 0L76.44 0 76.64-11.3Q76.69-12.85 76.79-14.55 76.89-16.25 77.02-17.93 77.14-19.6 77.27-21.13 77.39-22.65 77.49-23.8 77.59-24.95 77.67-25.63 77.74-26.3 77.74-26.3L77.74-26.3 76.49-27.35 76.49-34.1Q76.64-34.55 76.79-34.77 76.94-35 77.39-35L77.39-35Q79.24-35 80.02-35 80.79-35 80.97-35 81.14-35 81.14-35L81.14-35 81.14-0.9Q81.14-0.45 80.94-0.28 80.74-0.1 79.77-0.05 78.79 0 76.44 0ZM96.34 0L84.59 0 84.59-34.1Q84.59-34.1 84.72-34.55 84.84-35 85.44-35L85.44-35 97.44-35Q97.44-33.15 97.42-32.3 97.39-31.45 97.22-31.18 97.04-30.9 96.59-30.9L96.59-30.9 89.14-30.9 89.14-4.1 97.19-4.1Q97.19-2.2 97.14-1.33 97.09-0.45 96.94-0.23 96.79 0 96.34 0L96.34 0ZM95.34-16.9L85.09-16.9 85.09-21.1 96.19-21.1Q96.19-18.5 96.09-17.7 95.99-16.9 95.34-16.9L95.34-16.9ZM108.19 0.5L108.19 0.5Q105.74 0.5 104.04-0.3 102.34-1.1 101.26-3.15 100.19-5.2 99.69-8.72 99.19-12.25 99.19-17.7L99.19-17.7Q99.19-24.4 100.24-28.28 101.29-32.15 103.41-33.83 105.54-35.5 108.74-35.5L108.74-35.5Q111.19-35.5 112.89-34.65 114.59-33.8 115.64-31.8 116.69-29.8 117.16-26.4 117.64-23 117.64-17.85L117.64-17.85Q117.64-10.9 116.64-6.9 115.64-2.9 113.56-1.2 111.49 0.5 108.19 0.5ZM108.39-4.2L108.39-4.2Q110.04-4.2 110.94-5.55 111.84-6.9 112.24-9.9 112.64-12.9 112.64-17.75L112.64-17.75Q112.64-22.55 112.31-25.4 111.99-28.25 111.14-29.53 110.29-30.8 108.64-30.8L108.64-30.8Q107.09-30.8 106.14-29.43 105.19-28.05 104.76-24.95 104.34-21.85 104.34-16.6L104.34-16.6Q104.34-12.2 104.69-9.47 105.04-6.75 105.94-5.48 106.84-4.2 108.39-4.2ZM131.63-7.9L129.74-7.9 127.19-15.6Q127.03-16.05 126.71-17.25 126.39-18.45 125.96-20.05 125.53-21.65 125.06-23.33 124.59-25 124.21-26.45 123.84-27.9 123.61-28.78 123.39-29.65 123.39-29.65L123.39-29.65 125.14-35 129.63-20.8Q129.94-19.95 130.21-18.98 130.49-18 130.69-17.2 130.88-16.4 131.01-15.9 131.13-15.4 131.13-15.4L131.13-15.4Q131.13-15.4 131.24-15.9 131.34-16.4 131.56-17.2 131.78-18 132.01-18.93 132.24-19.85 132.53-20.7L132.53-20.7 136.59-34.1 138.63-29.5Q138.63-29.5 138.41-28.63 138.19-27.75 137.81-26.35 137.44-24.95 136.99-23.28 136.53-21.6 136.09-20.05 135.63-18.5 135.31-17.3 134.99-16.1 134.78-15.6L134.78-15.6 132.19-8.3Q132.09-7.9 131.63-7.9L131.63-7.9ZM120.89 0L120.89 0 120.89-34.1Q120.89-34.75 121.16-34.88 121.44-35 121.78-35L121.78-35 125.14-35 125.39-27.55 124.19-26.1Q124.19-26.1 124.26-25.48 124.34-24.85 124.46-23.73 124.59-22.6 124.71-21.13 124.84-19.65 124.96-18.03 125.09-16.4 125.19-14.7 125.28-13 125.28-11.45L125.28-11.45 125.39-0.9Q125.39-0.45 125.16-0.28 124.94-0.1 123.98-0.05 123.03 0 120.89 0ZM136.53 0L136.53 0 136.74-11.3Q136.78-12.85 136.88-14.55 136.99-16.25 137.11-17.93 137.24-19.6 137.36-21.13 137.49-22.65 137.59-23.8 137.69-24.95 137.76-25.63 137.84-26.3 137.84-26.3L137.84-26.3 136.59-27.35 136.59-34.1Q136.74-34.55 136.88-34.77 137.03-35 137.49-35L137.49-35Q139.34-35 140.11-35 140.88-35 141.06-35 141.24-35 141.24-35L141.24-35 141.24-0.9Q141.24-0.45 141.03-0.28 140.84-0.1 139.86-0.05 138.88 0 136.53 0ZM156.43 0L144.68 0 144.68-34.1Q144.68-34.1 144.81-34.55 144.93-35 145.53-35L145.53-35 157.53-35Q157.53-33.15 157.51-32.3 157.48-31.45 157.31-31.18 157.13-30.9 156.68-30.9L156.68-30.9 149.23-30.9 149.23-4.1 157.28-4.1Q157.28-2.2 157.23-1.33 157.18-0.45 157.03-0.23 156.88 0 156.43 0L156.43 0ZM155.43-16.9L145.18-16.9 145.18-21.1 156.28-21.1Q156.28-18.5 156.18-17.7 156.08-16.9 155.43-16.9L155.43-16.9ZM168.28 0.5L168.28 0.5Q165.83 0.5 164.13-0.3 162.43-1.1 161.36-3.15 160.28-5.2 159.78-8.72 159.28-12.25 159.28-17.7L159.28-17.7Q159.28-24.4 160.33-28.28 161.38-32.15 163.5-33.83 165.63-35.5 168.83-35.5L168.83-35.5Q171.28-35.5 172.98-34.65 174.68-33.8 175.73-31.8 176.78-29.8 177.25-26.4 177.73-23 177.73-17.85L177.73-17.85Q177.73-10.9 176.73-6.9 175.73-2.9 173.66-1.2 171.58 0.5 168.28 0.5ZM168.48-4.2L168.48-4.2Q170.13-4.2 171.03-5.55 171.93-6.9 172.33-9.9 172.73-12.9 172.73-17.75L172.73-17.75Q172.73-22.55 172.41-25.4 172.08-28.25 171.23-29.53 170.38-30.8 168.73-30.8L168.73-30.8Q167.18-30.8 166.23-29.43 165.28-28.05 164.86-24.95 164.43-21.85 164.43-16.6L164.43-16.6Q164.43-12.2 164.78-9.47 165.13-6.75 166.03-5.48 166.93-4.2 168.48-4.2ZM191.73-7.9L189.83-7.9 187.28-15.6Q187.13-16.05 186.8-17.25 186.48-18.45 186.05-20.05 185.63-21.65 185.15-23.33 184.68-25 184.3-26.45 183.93-27.9 183.7-28.78 183.48-29.65 183.48-29.65L183.48-29.65 185.23-35 189.73-20.8Q190.03-19.95 190.3-18.98 190.58-18 190.78-17.2 190.98-16.4 191.1-15.9 191.23-15.4 191.23-15.4L191.23-15.4Q191.23-15.4 191.33-15.9 191.43-16.4 191.65-17.2 191.88-18 192.1-18.93 192.33-19.85 192.63-20.7L192.63-20.7 196.68-34.1 198.73-29.5Q198.73-29.5 198.5-28.63 198.28-27.75 197.9-26.35 197.53-24.95 197.08-23.28 196.63-21.6 196.18-20.05 195.73-18.5 195.4-17.3 195.08-16.1 194.88-15.6L194.88-15.6 192.28-8.3Q192.18-7.9 191.73-7.9L191.73-7.9ZM180.98 0L180.98 0 180.98-34.1Q180.98-34.75 181.25-34.88 181.53-35 181.88-35L181.88-35 185.23-35 185.48-27.55 184.28-26.1Q184.28-26.1 184.35-25.48 184.43-24.85 184.55-23.73 184.68-22.6 184.8-21.13 184.93-19.65 185.05-18.03 185.18-16.4 185.28-14.7 185.38-13 185.38-11.45L185.38-11.45 185.48-0.9Q185.48-0.45 185.25-0.28 185.03-0.1 184.08-0.05 183.13 0 180.98 0ZM196.63 0L196.63 0 196.83-11.3Q196.88-12.85 196.98-14.55 197.08-16.25 197.2-17.93 197.33-19.6 197.45-21.13 197.58-22.65 197.68-23.8 197.78-24.95 197.85-25.63 197.93-26.3 197.93-26.3L197.93-26.3 196.68-27.35 196.68-34.1Q196.83-34.55 196.98-34.77 197.13-35 197.58-35L197.58-35Q199.43-35 200.2-35 200.98-35 201.15-35 201.33-35 201.33-35L201.33-35 201.33-0.9Q201.33-0.45 201.13-0.28 200.93-0.1 199.95-0.05 198.98 0 196.63 0ZM216.53 0L204.78 0 204.78-34.1Q204.78-34.1 204.9-34.55 205.03-35 205.63-35L205.63-35 217.63-35Q217.63-33.15 217.6-32.3 217.58-31.45 217.4-31.18 217.22-30.9 216.78-30.9L216.78-30.9 209.33-30.9 209.33-4.1 217.38-4.1Q217.38-2.2 217.33-1.33 217.28-0.45 217.13-0.23 216.97 0 216.53 0L216.53 0ZM215.53-16.9L205.28-16.9 205.28-21.1 216.38-21.1Q216.38-18.5 216.28-17.7 216.18-16.9 215.53-16.9L215.53-16.9ZM228.37 0.5L228.37 0.5Q225.92 0.5 224.22-0.3 222.52-1.1 221.45-3.15 220.37-5.2 219.87-8.72 219.37-12.25 219.37-17.7L219.37-17.7Q219.37-24.4 220.42-28.28 221.47-32.15 223.6-33.83 225.72-35.5 228.92-35.5L228.92-35.5Q231.37-35.5 233.07-34.65 234.77-33.8 235.82-31.8 236.87-29.8 237.35-26.4 237.82-23 237.82-17.85L237.82-17.85Q237.82-10.9 236.82-6.9 235.82-2.9 233.75-1.2 231.67 0.5 228.37 0.5ZM228.57-4.2L228.57-4.2Q230.22-4.2 231.12-5.55 232.02-6.9 232.42-9.9 232.82-12.9 232.82-17.75L232.82-17.75Q232.82-22.55 232.5-25.4 232.17-28.25 231.32-29.53 230.47-30.8 228.82-30.8L228.82-30.8Q227.27-30.8 226.32-29.43 225.37-28.05 224.95-24.95 224.52-21.85 224.52-16.6L224.52-16.6Q224.52-12.2 224.87-9.47 225.22-6.75 226.12-5.48 227.02-4.2 228.57-4.2Z" opacity="1" transform="matrix(1,0,0,1,0,0)" fill="#db8276" class="undefined-text-0" data-fill-palette-color="primary" id="text-0"></path></svg></g></svg></g></svg></g></svg></g><g transform="matrix(1,0,0,1,429.37582490232154,0)"><svg viewBox="0 0 111.55415733933714 83.2046978435518" height="83.2046978435518" width="111.55415733933714"><g><svg version="1.1" xmlns="http://www.w3.org/2000/svg" xmlns:xlink="http://www.w3.org/1999/xlink" x="0" y="0" viewBox="0.271534996006233 13.034506923089966 100.0009032409841 74.58749307691004" enable-background="new 0.271 13.034 100 74.587" xml:space="preserve" width="111.55415733933714" height="83.2046978435518" class="icon-icon-0" data-fill-palette-color="accent" id="icon-0"><g fill="#db8276" data-fill-palette-color="accent"><circle cx="35.735" cy="49.639" r="4.4" fill="#db8276" data-fill-palette-color="accent"></circle><circle cx="66.599" cy="49.639" r="4.4" fill="#db8276" data-fill-palette-color="accent"></circle><path d="M43.107 60.675c0 4.168 7.546 7.55 7.546 7.55s7.55-3.382 7.55-7.55S43.107 56.507 43.107 60.675z" fill="#db8276" data-fill-palette-color="accent"></path><path d="M98.236 69.06l-9.263-1.48c0.557-1.164 1.032-2.373 1.438-3.615l7.062 1.131c0.13 0.021 0.258 0.028 0.386 0.028 1.167 0 2.193-0.845 2.382-2.034 0.212-1.317-0.686-2.558-2.003-2.769l-6.675-1.067c0.28-1.726 0.427-3.508 0.427-5.343 0-6.845-4.561-22.027-6.425-26.725-1.431-3.602-2.868-5.95-4.531-8.67-0.774-1.264-1.604-2.621-2.514-4.245-0.403-0.718-1.142-1.181-1.964-1.23-0.849-0.062-1.611 0.324-2.097 0.987-3.021 4.139-7.708 8.75-9.605 8.75-0.775 0-2.202-0.176-3.855-0.38-2.922-0.36-6.562-0.81-10.338-0.81-3.111 0-6.12 0.394-8.776 0.741-1.843 0.241-3.434 0.449-4.533 0.449-3.984 0-8.543-6.114-9.827-8.256-0.434-0.723-1.213-1.17-2.058-1.175-0.881-0.004-1.628 0.427-2.072 1.145-2.846 4.602-4.725 7.642-6.769 12.961C14.749 32.337 10.35 47.23 10.35 53.91c0 1.735 0.136 3.422 0.386 5.062L2.311 60.32c-1.317 0.209-2.215 1.451-2.004 2.769 0.189 1.188 1.217 2.034 2.383 2.034 0.126 0 0.255-0.008 0.385-0.028l8.765-1.402c0.394 1.244 0.859 2.453 1.403 3.62L2.307 69.06c-1.317 0.211-2.215 1.451-2.005 2.771 0.19 1.187 1.217 2.034 2.383 2.034 0.127 0 0.256-0.01 0.386-0.028l12.746-2.039c6.81 9.795 19.501 15.824 35.349 15.824 15.708 0 28.317-5.926 35.172-15.568l11.136 1.781c0.13 0.021 0.258 0.029 0.386 0.029 1.167 0 2.193-0.847 2.382-2.034C100.452 70.511 99.553 69.271 98.236 69.06zM51.165 82.786c-11.613 0-23.289-3.759-30.068-11.836l2.122-0.338c1.318-0.211 2.215-1.45 2.004-2.77-0.211-1.317-1.452-2.215-2.767-2.004l-4.327 0.693c-0.595-1.138-1.106-2.338-1.531-3.601l6.621-1.057c1.318-0.212 2.215-1.451 2.004-2.77-0.211-1.316-1.452-2.215-2.767-2.005l-6.967 1.115c-0.195-1.376-0.31-2.805-0.31-4.302 0-5.423 3.863-19.281 5.955-24.725 1.408-3.665 2.707-6.117 4.445-9.015 2.48 3.151 6.775 7.44 11.767 7.44 1.414 0 3.149-0.227 5.16-0.489 2.508-0.328 5.352-0.7 8.15-0.7 3.479 0 6.953 0.428 9.746 0.772 1.886 0.232 3.375 0.417 4.446 0.417 3.909 0 8.436-4.511 11.267-7.873 0.271 0.448 0.534 0.88 0.793 1.301 1.609 2.635 2.883 4.715 4.16 7.93 2.081 5.247 6.083 19.387 6.083 24.941 0 1.6-0.129 3.12-0.352 4.58l-8.715-1.394c-1.33-0.215-2.558 0.687-2.769 2.005-0.211 1.317 0.688 2.557 2.004 2.769l8.316 1.329c-0.438 1.258-0.958 2.46-1.567 3.592l-5.984-0.957c-1.332-0.212-2.559 0.687-2.77 2.004s0.688 2.558 2.003 2.769l3.694 0.592C74.207 79.103 62.656 82.786 51.165 82.786z" fill="#db8276" data-fill-palette-color="accent"></path></g></svg></g></svg></g></svg></g><defs></defs></svg><rect width="395.52" height="60.83804405646638" fill="none" stroke="none" visibility="hidden"></rect></g></svg></g></svg>