<svg width="222" height="222" viewBox="0 0 222 222" fill="none" xmlns="http://www.w3.org/2000/svg">
<g clip-path="url(#clip0_134_5)">
<g clip-path="url(#clip1_134_5)">
<path d="M0 110.822C0 49.6165 49.6252 0 110.841 0C172.057 0 221.682 49.6165 221.682 110.822C221.682 172.027 172.057 221.643 110.841 221.643C49.6252 221.643 0 172.027 0 110.822ZM110.841 217.237C169.623 217.237 217.275 169.594 217.276 110.822C217.276 52.0504 169.624 4.40687 110.841 4.40687C52.0596 4.40687 4.40765 52.0504 4.40765 110.822C4.40765 169.593 52.0596 217.236 110.841 217.237Z" fill="#DB8276"/>
<path d="M110.841 220.535C171.445 220.535 220.574 171.415 220.574 110.822C220.574 50.2286 171.445 1.10822 110.841 1.10822C50.2375 1.10822 1.1084 50.2286 1.1084 110.822C1.1084 171.415 50.2375 220.535 110.841 220.535Z" fill="#DB8276"/>
<g clip-path="url(#clip2_134_5)">
<g clip-path="url(#clip3_134_5)">
<path d="M91.8019 115.681C94.9846 115.681 97.5647 113.101 97.5647 109.919C97.5647 106.737 94.9846 104.157 91.8019 104.157C88.6192 104.157 86.0391 106.737 86.0391 109.919C86.0391 113.101 88.6192 115.681 91.8019 115.681Z" fill="white"/>
<path d="M132.225 115.681C135.408 115.681 137.988 113.101 137.988 109.919C137.988 106.737 135.408 104.157 132.225 104.157C129.042 104.157 126.462 106.737 126.462 109.919C126.462 113.101 129.042 115.681 132.225 115.681Z" fill="white"/>
<path d="M101.457 124.371C101.457 129.829 111.34 134.257 111.34 134.257C111.34 134.257 121.229 129.829 121.229 124.371C121.229 118.913 101.457 118.913 101.457 124.371Z" fill="white"/>
<path d="M173.661 135.351L161.529 133.413C162.259 131.889 162.881 130.305 163.413 128.679L172.662 130.16C172.832 130.188 173 130.197 173.167 130.197C174.696 130.197 176.04 129.09 176.287 127.533C176.565 125.809 175.389 124.184 173.664 123.907L164.921 122.51C165.288 120.25 165.481 117.916 165.481 115.513C165.481 106.55 159.507 86.6691 157.066 80.5171C155.191 75.8003 153.309 72.7256 151.131 69.1638C150.118 67.5086 149.03 65.7316 147.839 63.605C147.311 62.6647 146.343 62.0584 145.266 61.9943C144.154 61.9131 143.156 62.4186 142.52 63.2868C138.563 68.7068 132.424 74.7448 129.94 74.7448C128.925 74.7448 127.056 74.5144 124.891 74.2472C121.064 73.7758 116.296 73.1865 111.351 73.1865C107.276 73.1865 103.335 73.7025 99.8568 74.1569C97.4429 74.4725 95.3592 74.7448 93.9198 74.7448C88.7018 74.7448 82.7308 66.7386 81.0491 63.9336C80.4807 62.9869 79.4604 62.4015 78.3537 62.395C77.1998 62.3897 76.2214 62.9541 75.6399 63.8944C71.9124 69.9207 69.4515 73.9015 66.7744 80.8667C64.316 87.2623 58.5545 106.765 58.5545 115.512C58.5545 117.784 58.7327 119.993 59.0601 122.141L48.0256 123.906C46.3007 124.18 45.1246 125.806 45.4009 127.532C45.6485 129.088 46.9949 130.195 48.522 130.195C48.687 130.195 48.856 130.185 49.0263 130.159L60.506 128.323C61.0221 129.952 61.6311 131.535 62.3436 133.063L48.0204 135.351C46.2955 135.627 45.1194 137.251 45.3944 138.98C45.6432 140.534 46.9883 141.643 48.5155 141.643C48.6818 141.643 48.8508 141.63 49.021 141.606L65.7148 138.936C74.6341 151.763 91.2558 159.658 112.012 159.658C132.586 159.658 149.1 151.898 158.078 139.272L172.663 141.604C172.833 141.631 173.001 141.642 173.169 141.642C174.697 141.642 176.041 140.533 176.289 138.978C176.564 137.251 175.386 135.627 173.661 135.351ZM112.011 153.325C96.8012 153.325 81.5088 148.403 72.6302 137.826L75.4094 137.383C77.1356 137.107 78.3105 135.484 78.0341 133.756C77.7577 132.031 76.1324 130.855 74.4101 131.132L68.7429 132.039C67.9636 130.549 67.2943 128.978 66.7377 127.324L75.4094 125.94C77.1356 125.662 78.3105 124.039 78.0341 122.312C77.7577 120.589 76.1324 119.412 74.4101 119.687L65.2852 121.147C65.0298 119.345 64.8792 117.474 64.8792 115.513C64.8792 108.412 69.9387 90.265 72.6786 83.1361C74.5227 78.3368 76.2241 75.1259 78.5004 71.331C81.7485 75.4572 87.3738 81.0736 93.9119 81.0736C95.7639 81.0736 98.0363 80.7764 100.67 80.4333C103.955 80.0038 107.68 79.5166 111.344 79.5166C115.901 79.5166 120.451 80.0771 124.109 80.5276C126.579 80.8314 128.529 81.0736 129.932 81.0736C135.052 81.0736 140.981 75.1665 144.689 70.764C145.044 71.3506 145.388 71.9163 145.727 72.4676C147.835 75.9181 149.503 78.6419 151.176 82.8519C153.901 89.7228 159.143 108.239 159.143 115.512C159.143 117.607 158.974 119.598 158.682 121.51L147.268 119.684C145.526 119.403 143.917 120.584 143.641 122.31C143.365 124.034 144.542 125.658 146.266 125.936L157.157 127.676C156.584 129.323 155.903 130.897 155.105 132.38L147.268 131.126C145.523 130.849 143.916 132.026 143.64 133.751C143.363 135.475 144.541 137.1 146.263 137.377L151.101 138.152C142.19 148.502 127.061 153.325 112.011 153.325Z" fill="white"/>
</g>
</g>
</g>
</g>
<defs>
<clipPath id="clip0_134_5">
<rect width="221.683" height="221.643" fill="white"/>
</clipPath>
<clipPath id="clip1_134_5">
<rect width="221.683" height="221.643" fill="white"/>
</clipPath>
<clipPath id="clip2_134_5">
<rect width="130.974" height="97.672" fill="white" transform="translate(45.3545 61.9857)"/>
</clipPath>
<clipPath id="clip3_134_5">
<rect width="130.974" height="97.672" fill="white" transform="translate(45.3545 61.9857)"/>
</clipPath>
</defs>
</svg>
