<svg width="20" height="20" viewBox="0 0 20 20" fill="none" xmlns="http://www.w3.org/2000/svg">
<g clip-path="url(#clip0_193_31)">
<path d="M1.72317 4.56833L9.119 11.965C9.3378 12.1839 9.63004 12.3139 9.93916 12.3298C10.2483 12.3456 10.5523 12.2462 10.7923 12.0508L10.8873 11.965L18.2782 4.57333C18.3023 4.66499 18.3182 4.75833 18.3265 4.85416L18.3332 4.99999V15C18.3333 15.4205 18.1745 15.8255 17.8886 16.1338C17.6027 16.4421 17.2108 16.631 16.7915 16.6625L16.6665 16.6667H3.33317C2.91269 16.6668 2.5077 16.508 2.19938 16.2221C1.89106 15.9362 1.70221 15.5443 1.67067 15.125L1.6665 15V4.99999C1.6665 4.89999 1.67484 4.80333 1.6915 4.70833L1.72317 4.56833ZM16.6665 3.33333C16.7673 3.33333 16.8665 3.34166 16.9623 3.35916L17.104 3.39166L10.004 10.4917L2.9015 3.38999C2.99317 3.36499 3.08817 3.34833 3.18484 3.33999L3.33317 3.33333H16.6665Z" fill="#4D4544"/>
</g>
<defs>
<clipPath id="clip0_193_31">
<rect width="20" height="20" fill="white"/>
</clipPath>
</defs>
</svg>
