<svg width="18" height="18" viewBox="0 0 18 18" fill="none" xmlns="http://www.w3.org/2000/svg">
<path fill-rule="evenodd" clip-rule="evenodd" d="M12.7935 17.4442C11.5935 17.4 8.19266 16.93 4.631 13.3692C1.07016 9.8075 0.600996 6.4075 0.555996 5.20666C0.489329 3.37666 1.891 1.59916 3.51016 0.904997C3.70514 0.820802 3.91866 0.788747 4.12977 0.811976C4.34088 0.835205 4.54232 0.912921 4.71433 1.0375C6.04766 2.00916 6.96766 3.47916 7.75766 4.635C7.93148 4.88894 8.0058 5.19795 7.96646 5.50316C7.92712 5.80837 7.77687 6.08844 7.54433 6.29L5.9185 7.4975C5.83995 7.55422 5.78466 7.63752 5.76289 7.73193C5.74113 7.82634 5.75437 7.92545 5.80016 8.01083C6.1685 8.68 6.8235 9.67666 7.5735 10.4267C8.32433 11.1767 9.36766 11.875 10.0835 12.285C10.1732 12.3354 10.2789 12.3495 10.3787 12.3244C10.4785 12.2992 10.5649 12.2368 10.6202 12.15L11.6785 10.5392C11.8731 10.2807 12.1601 10.1076 12.4795 10.056C12.7989 10.0044 13.1258 10.0784 13.3918 10.2625C14.5643 11.0742 15.9327 11.9783 16.9343 13.2608C17.069 13.4341 17.1547 13.6403 17.1824 13.858C17.2101 14.0757 17.1788 14.2969 17.0918 14.4983C16.3943 16.1258 14.6293 17.5117 12.7935 17.4442Z" fill="#4D4544"/>
</svg>
